# xmcd
#
# Track frame offsets:
#	150
#	19970
#	39695
#	60685
#	74832
#	95507
#	114557
#	137067
#	150637
#	167890
#	190045
#	207557
#	225310
#	243100
#
# Disc length: 3407 seconds
#
# Revision: 1
# Processed by: cddbd v1.4PL0 Copyright (c) Steve Scherf et al.
# Submitted via: audiograbber 1.80
#
DISCID=c50d4d0e
DTITLE=Jayne - Canta Comigo
DYEAR=1900
DGENRE=
TTITLE0=Conta comigo
TTITLE1=Um sonho a mais [Unbreack my heart]
TTITLE2=Mississipi
TTITLE3=Peao apaixonado
TTITLE4=Preciso ser amada
TTITLE5=E agora o que e que eu faco
TTITLE6=Rainha do rodeio
TTITLE7=Desde que te vi [En'de que te vi]
TTITLE8=Voce vai ser
TTITLE9=O mais importante e o verdadeiro amor [Tanta voglia di lei]
TTITLE10=Sem voce [Without you]
TTITLE11=Estrada da esperanca
TTITLE12=A solidao [La sulitudini]
TTITLE13=Pombinha mensageira
EXTD=
EXTT0=
EXTT1=
EXTT2=
EXTT3=
EXTT4=
EXTT5=
EXTT6=
EXTT7=
EXTT8=
EXTT9=
EXTT10=
EXTT11=
EXTT12=
EXTT13=
PLAYORDER=
